<?xml version="1.0" encoding="utf-8"?>
<!-- Generator: Adobe Illustrator 24.2.3, SVG Export Plug-In . SVG Version: 6.00 Build 0)  -->
<svg version="1.1" id="svg8" xmlns="http://www.w3.org/2000/svg" xmlns:xlink="http://www.w3.org/1999/xlink" x="0px" y="0px"
	 viewBox="0 0 100 100" style="enable-background:new 0 0 100 100;" xml:space="preserve">
<style type="text/css">
	.st0{fill:#FF8800;}
	.st1{fill:#5BA8C2;}
</style>
<g>
	<path class="st0" d="M39.3,59.9c-3.7,0-6.7-3-6.7-6.7c0-3.7,3-6.7,6.7-6.7c3.7,0,6.7,3,6.7,6.7C46.1,56.9,43.1,59.9,39.3,59.9z
		 M39.3,49.8c-1.9,0-3.4,1.5-3.4,3.4s1.5,3.4,3.4,3.4s3.4-1.5,3.4-3.4S41.2,49.8,39.3,49.8z"/>
	<path class="st0" d="M56.2,64.9c-3.7,0-6.7-3-6.7-6.7s3-6.7,6.7-6.7s6.7,3,6.7,6.7S59.9,64.9,56.2,64.9z M56.2,54.8
		c-1.9,0-3.4,1.5-3.4,3.4s1.5,3.4,3.4,3.4s3.4-1.5,3.4-3.4S58.1,54.8,56.2,54.8z"/>
	<path class="st0" d="M52.8,46.4c-2.8,0-5.1-2.3-5.1-5.1c0-2.8,2.3-5.1,5.1-5.1c2.8,0,5.1,2.3,5.1,5.1
		C57.9,44.1,55.6,46.4,52.8,46.4z M52.8,39.6c-0.9,0-1.7,0.8-1.7,1.7s0.8,1.7,1.7,1.7s1.7-0.8,1.7-1.7S53.8,39.6,52.8,39.6z"/>
	<path class="st1" d="M49.5,93.6c-3.7,0-6.7-3-6.7-6.7c0-2.1,1-4,2.6-5.3l-1-7.1c-0.6-0.1-1.3-0.3-1.9-0.5L38,79.6
		c0.8,1.9,0.6,4.1-0.4,5.9c-0.9,1.6-2.4,2.7-4.1,3.1c-1.7,0.5-3.6,0.2-5.1-0.7c-1.6-0.9-2.7-2.4-3.1-4.1c-0.5-1.7-0.2-3.6,0.7-5.1
		c1-1.8,2.9-3,4.9-3.3l2.7-6.6c-0.5-0.4-0.9-0.9-1.4-1.4l-6.6,2.7c-0.3,2-1.5,3.9-3.3,4.9c-3.2,1.9-7.4,0.8-9.2-2.5
		c-0.9-1.6-1.1-3.4-0.7-5.1s1.6-3.2,3.1-4.1c1.8-1,4-1.2,5.9-0.4l5.6-4.4c-0.2-0.6-0.4-1.2-0.5-1.9l-7.1-1c-1.3,1.6-3.2,2.6-5.3,2.6
		c-3.7,0-6.7-3-6.7-6.7s3-6.7,6.7-6.7c2.1,0,4,1,5.3,2.6l7.1-1c0.1-0.6,0.3-1.3,0.5-1.9L21.3,40c-1.9,0.8-4.1,0.6-5.9-0.4
		c-1.6-0.9-2.7-2.4-3.1-4.1s-0.2-3.6,0.7-5.1c0.9-1.6,2.4-2.7,4.1-3.1c1.7-0.5,3.6-0.2,5.1,0.7c1.8,1,3,2.9,3.3,4.9l6.6,2.7
		c0.4-0.5,0.9-0.9,1.4-1.4l-2.7-6.6c-2-0.3-3.9-1.5-4.9-3.3c-0.9-1.6-1.1-3.4-0.7-5.1s1.6-3.2,3.1-4.1c1.6-0.9,3.4-1.1,5.1-0.7
		c1.7,0.5,3.2,1.6,4.1,3.1c1,1.8,1.2,4,0.4,5.9l4.4,5.6c0.6-0.2,1.2-0.4,1.9-0.5l1-7.1c-1.6-1.3-2.6-3.2-2.6-5.3
		c0-3.7,3-6.7,6.7-6.7s6.7,3,6.7,6.7c0,2.1-1,4-2.6,5.3l1,7.1c0.6,0.1,1.3,0.3,1.9,0.5l4.4-5.6c-0.8-1.9-0.6-4.1,0.4-5.9
		c1.9-3.2,6-4.3,9.2-2.5c3.2,1.9,4.3,6,2.5,9.2c-1,1.8-2.9,3-4.9,3.3l-2.7,6.6c0.5,0.4,0.9,0.9,1.4,1.4l6.6-2.7
		c0.3-2,1.5-3.9,3.3-4.9c1.6-0.9,3.4-1.1,5.1-0.7c1.7,0.5,3.2,1.6,4.1,3.1c1.9,3.2,0.8,7.4-2.5,9.2c-1.8,1-4,1.2-5.9,0.4L72,44.4
		c0.2,0.6,0.4,1.2,0.5,1.9l7.1,1c1.3-1.6,3.2-2.6,5.3-2.6c3.7,0,6.7,3,6.7,6.7s-3,6.7-6.7,6.7c-2.1,0-4-1-5.3-2.6l-7.1,1
		c-0.1,0.6-0.3,1.3-0.5,1.9l5.6,4.4c1.9-0.8,4.1-0.6,5.9,0.4c3.2,1.9,4.3,6,2.5,9.2c-1.9,3.2-6,4.3-9.2,2.5c-1.8-1-3-2.9-3.3-4.9
		l-6.6-2.7c-0.4,0.5-0.9,0.9-1.4,1.4l2.7,6.6c2,0.3,3.9,1.5,4.9,3.3c0.9,1.6,1.1,3.4,0.7,5.1c-0.5,1.7-1.6,3.2-3.1,4.1
		c-1.6,0.9-3.4,1.1-5.1,0.7c-1.7-0.5-3.2-1.6-4.1-3.1c-1-1.8-1.2-4-0.4-5.9L56.5,74c-0.6,0.2-1.2,0.4-1.9,0.5l-1,7.1
		c1.6,1.3,2.6,3.2,2.6,5.3C56.2,90.6,53.2,93.6,49.5,93.6z M41.8,70.3c0.2,0,0.4,0,0.6,0.1c1.2,0.4,2.4,0.8,3.7,1
		c0.7,0.1,1.3,0.7,1.4,1.4l1.3,9.4c0.1,0.7-0.3,1.4-0.9,1.7c-1.1,0.6-1.8,1.7-1.8,3c0,1.9,1.5,3.4,3.4,3.4c1.9,0,3.4-1.5,3.4-3.4
		c0-1.2-0.7-2.4-1.8-3c-0.6-0.3-1-1-0.9-1.7l1.3-9.4c0.1-0.7,0.7-1.3,1.4-1.4c1.2-0.2,2.5-0.5,3.7-1c0.7-0.3,1.5,0,1.9,0.5l5.8,7.4
		c0.4,0.6,0.5,1.3,0.1,1.9c-0.7,1.1-0.7,2.4-0.1,3.5c0.5,0.8,1.2,1.3,2,1.6c0.9,0.2,1.8,0.1,2.6-0.3c0.8-0.5,1.3-1.2,1.6-2
		c0.2-0.9,0.1-1.8-0.3-2.6c-0.6-1.1-1.8-1.7-3.1-1.7c-0.7,0-1.4-0.4-1.6-1.1L61.9,69c-0.3-0.7-0.1-1.5,0.5-1.9
		c1-0.8,1.9-1.7,2.7-2.7c0.5-0.6,1.2-0.8,1.9-0.5l8.7,3.5c0.7,0.3,1.1,0.9,1.1,1.6c-0.1,1.3,0.6,2.4,1.7,3.1
		c0.8,0.5,1.7,0.6,2.6,0.3c0.9-0.2,1.6-0.8,2-1.6c0.9-1.6,0.4-3.7-1.2-4.6c-1.1-0.6-2.4-0.6-3.5,0.1c-0.6,0.4-1.4,0.3-1.9-0.1
		l-7.4-5.8c-0.6-0.5-0.8-1.2-0.5-1.9c0.4-1.2,0.8-2.4,1-3.7c0.1-0.7,0.7-1.3,1.4-1.4l9.4-1.3c0.7-0.1,1.4,0.3,1.7,0.9
		c0.6,1.1,1.7,1.8,3,1.8c1.9,0,3.4-1.5,3.4-3.4s-1.5-3.4-3.4-3.4c-1.2,0-2.4,0.7-3,1.8c-0.3,0.6-1,1-1.7,0.9l-9.4-1.3
		c-0.7-0.1-1.3-0.7-1.4-1.4c-0.2-1.2-0.5-2.5-1-3.7c-0.3-0.7,0-1.5,0.5-1.9l7.4-5.8c0.6-0.4,1.3-0.5,1.9-0.1
		c1.1,0.7,2.4,0.7,3.5,0.1c1.6-0.9,2.2-3,1.2-4.6c-0.5-0.8-1.2-1.3-2-1.6c-0.9-0.2-1.8-0.1-2.6,0.3c-1.1,0.6-1.7,1.8-1.7,3.1
		c0,0.7-0.4,1.4-1.1,1.6L67,39c-0.7,0.3-1.5,0.1-1.9-0.5c-0.8-1-1.7-1.9-2.7-2.7c-0.6-0.5-0.8-1.2-0.5-1.9l3.5-8.7
		c0.3-0.7,0.9-1.1,1.6-1.1c1.3,0.1,2.4-0.6,3.1-1.7c0.9-1.6,0.4-3.7-1.2-4.6s-3.7-0.4-4.6,1.2c-0.6,1.1-0.6,2.4,0.1,3.5
		c0.4,0.6,0.3,1.4-0.1,1.9L58.4,32c-0.5,0.6-1.2,0.8-1.9,0.5c-1.2-0.4-2.4-0.8-3.7-1c-0.7-0.1-1.3-0.7-1.4-1.4l-1.3-9.4
		C50,20,50.4,19.3,51,19c1.1-0.6,1.8-1.7,1.8-3c0-1.9-1.5-3.4-3.4-3.4c-1.9,0-3.4,1.5-3.4,3.4c0,1.2,0.7,2.4,1.8,3
		c0.6,0.3,1,1,0.9,1.7l-1.3,9.4c-0.1,0.7-0.7,1.3-1.4,1.4c-1.2,0.2-2.5,0.5-3.7,1c-0.7,0.3-1.5,0-1.9-0.5l-5.8-7.4
		c-0.4-0.6-0.5-1.3-0.1-1.9c0.7-1.1,0.7-2.4,0.1-3.5c-0.5-0.8-1.2-1.3-2-1.6c-0.9-0.2-1.8-0.1-2.6,0.3c-0.8,0.5-1.3,1.2-1.6,2
		c-0.2,0.9-0.1,1.8,0.3,2.6c0.6,1.1,1.8,1.7,3.1,1.7c0.7,0,1.4,0.4,1.6,1.1l3.5,8.7c0.3,0.7,0.1,1.5-0.5,1.9c-1,0.8-1.9,1.7-2.7,2.7
		c-0.5,0.6-1.2,0.8-1.9,0.5l-8.7-3.5c-0.7-0.3-1.1-0.9-1.1-1.6c0.1-1.3-0.6-2.4-1.7-3.1c-1.6-0.9-3.7-0.4-4.6,1.2
		c-0.5,0.8-0.6,1.7-0.3,2.6c0.2,0.9,0.8,1.6,1.6,2c1.1,0.6,2.4,0.6,3.5-0.1c0.6-0.4,1.4-0.3,1.9,0.1l7.4,5.8
		c0.6,0.5,0.8,1.2,0.5,1.9c-0.4,1.2-0.8,2.4-1,3.7c-0.1,0.7-0.7,1.3-1.4,1.4l-9.4,1.3c-0.7,0.1-1.4-0.3-1.7-0.9
		c-0.6-1.1-1.7-1.8-3-1.8c-1.9,0-3.4,1.5-3.4,3.4s1.5,3.4,3.4,3.4c1.2,0,2.4-0.7,3-1.8c0.3-0.6,1-1,1.7-0.9l9.4,1.3
		c0.7,0.1,1.3,0.7,1.4,1.4c0.2,1.2,0.5,2.5,1,3.7c0.3,0.7,0,1.5-0.5,1.9l-7.4,5.8c-0.6,0.4-1.3,0.5-1.9,0.1
		c-1.1-0.7-2.4-0.7-3.5-0.1c-0.8,0.5-1.3,1.2-1.6,2c-0.2,0.9-0.1,1.8,0.3,2.6c0.9,1.6,3,2.2,4.6,1.2c1.1-0.6,1.7-1.8,1.7-3.1
		c0-0.7,0.4-1.4,1.1-1.6l8.7-3.5c0.7-0.3,1.5-0.1,1.9,0.5c0.8,1,1.7,1.9,2.7,2.7c0.6,0.5,0.8,1.2,0.5,1.9l-3.5,8.7
		c-0.3,0.7-0.9,1.1-1.6,1.1c-1.3,0-2.4,0.6-3.1,1.7c-0.5,0.8-0.6,1.7-0.3,2.6c0.2,0.9,0.8,1.6,1.6,2s1.7,0.6,2.6,0.3
		c0.9-0.2,1.6-0.8,2-1.6c0.6-1.1,0.6-2.4-0.1-3.5c-0.4-0.6-0.3-1.4,0.1-1.9l5.8-7.4C40.8,70.5,41.3,70.3,41.8,70.3z"/>
</g>
</svg>
